<svg xmlns="http://www.w3.org/2000/svg" width="1600" height="420" viewBox="0 0 1600 420" role="img" aria-label="30 Days of AI Engineering banner">
  <defs>
    <linearGradient id="bg" x1="0" x2="1" y1="0" y2="1">
      <stop offset="0%" stop-color="#0b1220"/>
      <stop offset="45%" stop-color="#14324d"/>
      <stop offset="100%" stop-color="#1f6f8b"/>
    </linearGradient>
    <linearGradient id="accent" x1="0" x2="1" y1="0" y2="0">
      <stop offset="0%" stop-color="#7dd3fc"/>
      <stop offset="50%" stop-color="#a7f3d0"/>
      <stop offset="100%" stop-color="#fcd34d"/>
    </linearGradient>
    <filter id="blur" x="-20%" y="-20%" width="140%" height="140%">
      <feGaussianBlur stdDeviation="28"/>
    </filter>
  </defs>
  <rect width="1600" height="420" fill="url(#bg)"/>
  <circle cx="220" cy="90" r="90" fill="#38bdf8" opacity="0.18" filter="url(#blur)"/>
  <circle cx="1330" cy="340" r="130" fill="#f59e0b" opacity="0.14" filter="url(#blur)"/>
  <circle cx="1130" cy="120" r="80" fill="#34d399" opacity="0.16" filter="url(#blur)"/>
  <path d="M0 300 C 250 210, 400 390, 660 290 S 1120 220, 1600 320" fill="none" stroke="url(#accent)" stroke-width="6" opacity="0.65"/>
  <g fill="#e2e8f0" font-family="Inter, Segoe UI, Arial, sans-serif">
    <text x="100" y="140" font-size="64" font-weight="800" letter-spacing="1">30 Days of AI Engineering</text>
    <text x="100" y="200" font-size="30" opacity="0.88">A hands-on, project-first journey from AI fundamentals to production-ready agents</text>
    <text x="100" y="262" font-size="22" opacity="0.78">Python • TypeScript • LLM APIs • RAG • Memory • Agents • MCP • Deployment</text>
  </g>
  <g transform="translate(100, 310)">
    <rect x="0" y="0" width="176" height="42" rx="21" fill="#0f172a" opacity="0.72" stroke="#7dd3fc"/>
    <text x="88" y="27" text-anchor="middle" fill="#e2e8f0" font-family="Inter, Segoe UI, Arial, sans-serif" font-size="18">Start Building</text>
  </g>
  <g transform="translate(1210, 70)" opacity="0.9">
    <rect x="0" y="0" width="260" height="180" rx="28" fill="#0f172a" fill-opacity="0.45" stroke="#7dd3fc" stroke-opacity="0.22"/>
    <path d="M34 44h192M34 78h160M34 112h120M34 146h182" stroke="#cbd5e1" stroke-opacity="0.4" stroke-width="8" stroke-linecap="round"/>
    <circle cx="212" cy="47" r="10" fill="#fcd34d"/>
    <circle cx="212" cy="81" r="10" fill="#7dd3fc"/>
    <circle cx="212" cy="115" r="10" fill="#a7f3d0"/>
  </g>
</svg>
