<svg xmlns="http://www.w3.org/2000/svg" width="1400" height="320" viewBox="0 0 1400 320" role="img" aria-label="Week 2 application building diagram">
  <defs>
    <linearGradient id="g" x1="0" x2="1" y1="0" y2="1">
      <stop offset="0%" stop-color="#111827"/>
      <stop offset="100%" stop-color="#065f46"/>
    </linearGradient>
  </defs>
  <rect width="1400" height="320" rx="24" fill="url(#g)"/>
  <text x="64" y="70" fill="#ecfeff" font-family="Inter, Arial, sans-serif" font-size="34" font-weight="700">Week 2 - Building AI Applications</text>
  <text x="64" y="108" fill="#d1fae5" font-family="Inter, Arial, sans-serif" font-size="18">APIs, structure, tools, streaming, and a mini assistant</text>
  <g fill="#e2e8f0" font-family="Inter, Arial, sans-serif" font-size="20" font-weight="600">
    <rect x="70" y="180" width="160" height="64" rx="16" fill="#0ea5e9"/>
    <rect x="270" y="180" width="160" height="64" rx="16" fill="#22c55e"/>
    <rect x="470" y="180" width="180" height="64" rx="16" fill="#f59e0b"/>
    <rect x="690" y="180" width="160" height="64" rx="16" fill="#a855f7"/>
    <rect x="890" y="180" width="180" height="64" rx="16" fill="#ef4444"/>
    <rect x="1110" y="180" width="160" height="64" rx="16" fill="#14b8a6"/>
  </g>
  <g stroke="#e2e8f0" stroke-width="4" stroke-linecap="round">
    <path d="M230 212h20"/>
    <path d="M430 212h20"/>
    <path d="M650 212h20"/>
    <path d="M850 212h20"/>
    <path d="M1070 212h20"/>
    <path d="M246 198l16 14-16 14" fill="none"/>
    <path d="M446 198l16 14-16 14" fill="none"/>
    <path d="M666 198l16 14-16 14" fill="none"/>
    <path d="M866 198l16 14-16 14" fill="none"/>
    <path d="M1086 198l16 14-16 14" fill="none"/>
  </g>
  <text x="150" y="218" text-anchor="middle">OpenAI</text>
  <text x="350" y="218" text-anchor="middle">Claude</text>
  <text x="560" y="218" text-anchor="middle">Structured</text>
  <text x="770" y="218" text-anchor="middle">Tools</text>
  <text x="980" y="218" text-anchor="middle">Streaming</text>
  <text x="1190" y="218" text-anchor="middle">Assistant</text>
</svg>
